<mxfile host="app.diagrams.net" modified="2022-02-11T02:09:40.415Z" agent="5.0 (Macintosh; Intel Mac OS X 10_15_7) AppleWebKit/537.36 (KHTML, like Gecko) Chrome/98.0.4758.80 Safari/537.36" etag="bWXZm8ZFNv54UdASVKF1" version="16.5.4" type="github">
  <diagram id="3IbvSWYYHR71W8YrFycs" name="Page-1">
    <mxGraphModel dx="1426" dy="769" grid="1" gridSize="10" guides="1" tooltips="1" connect="1" arrows="1" fold="1" page="1" pageScale="1" pageWidth="850" pageHeight="1100" math="0" shadow="0">
      <root>
        <mxCell id="0" />
        <mxCell id="1" parent="0" />
        <mxCell id="lsN4cA1BIIc9ZXbW3WAg-1" value="block device" style="rounded=1;whiteSpace=wrap;html=1;" vertex="1" parent="1">
          <mxGeometry x="250" y="510" width="120" height="60" as="geometry" />
        </mxCell>
        <mxCell id="lsN4cA1BIIc9ZXbW3WAg-2" value="character device" style="rounded=1;whiteSpace=wrap;html=1;" vertex="1" parent="1">
          <mxGeometry x="250" y="630" width="120" height="60" as="geometry" />
        </mxCell>
        <mxCell id="lsN4cA1BIIc9ZXbW3WAg-3" value="pipe device" style="rounded=1;whiteSpace=wrap;html=1;" vertex="1" parent="1">
          <mxGeometry x="250" y="740" width="120" height="60" as="geometry" />
        </mxCell>
        <mxCell id="lsN4cA1BIIc9ZXbW3WAg-4" value="socket device" style="rounded=1;whiteSpace=wrap;html=1;" vertex="1" parent="1">
          <mxGeometry x="250" y="850" width="120" height="60" as="geometry" />
        </mxCell>
        <mxCell id="lsN4cA1BIIc9ZXbW3WAg-5" value="VFS" style="rounded=1;whiteSpace=wrap;html=1;" vertex="1" parent="1">
          <mxGeometry x="450" y="510" width="120" height="60" as="geometry" />
        </mxCell>
        <mxCell id="lsN4cA1BIIc9ZXbW3WAg-6" value="kernel device driver" style="rounded=1;whiteSpace=wrap;html=1;" vertex="1" parent="1">
          <mxGeometry x="450" y="630" width="120" height="60" as="geometry" />
        </mxCell>
        <mxCell id="lsN4cA1BIIc9ZXbW3WAg-7" value="specific fs" style="rounded=1;whiteSpace=wrap;html=1;" vertex="1" parent="1">
          <mxGeometry x="650" y="510" width="120" height="60" as="geometry" />
        </mxCell>
        <mxCell id="lsN4cA1BIIc9ZXbW3WAg-8" value="" style="endArrow=classic;html=1;rounded=0;exitX=1;exitY=0.5;exitDx=0;exitDy=0;entryX=0;entryY=0.5;entryDx=0;entryDy=0;" edge="1" parent="1" source="lsN4cA1BIIc9ZXbW3WAg-1" target="lsN4cA1BIIc9ZXbW3WAg-5">
          <mxGeometry width="50" height="50" relative="1" as="geometry">
            <mxPoint x="20" y="700" as="sourcePoint" />
            <mxPoint x="70" y="650" as="targetPoint" />
          </mxGeometry>
        </mxCell>
        <mxCell id="lsN4cA1BIIc9ZXbW3WAg-9" value="" style="endArrow=classic;html=1;rounded=0;exitX=1;exitY=0.5;exitDx=0;exitDy=0;entryX=0;entryY=0.5;entryDx=0;entryDy=0;" edge="1" parent="1" source="lsN4cA1BIIc9ZXbW3WAg-5" target="lsN4cA1BIIc9ZXbW3WAg-7">
          <mxGeometry width="50" height="50" relative="1" as="geometry">
            <mxPoint x="620" y="680" as="sourcePoint" />
            <mxPoint x="670" y="630" as="targetPoint" />
          </mxGeometry>
        </mxCell>
        <mxCell id="lsN4cA1BIIc9ZXbW3WAg-10" value="" style="endArrow=classic;html=1;rounded=0;exitX=1;exitY=0.5;exitDx=0;exitDy=0;entryX=0;entryY=0.5;entryDx=0;entryDy=0;" edge="1" parent="1" source="lsN4cA1BIIc9ZXbW3WAg-2" target="lsN4cA1BIIc9ZXbW3WAg-6">
          <mxGeometry width="50" height="50" relative="1" as="geometry">
            <mxPoint x="380" y="750" as="sourcePoint" />
            <mxPoint x="430" y="700" as="targetPoint" />
          </mxGeometry>
        </mxCell>
        <mxCell id="lsN4cA1BIIc9ZXbW3WAg-11" value="" style="endArrow=classic;html=1;rounded=0;entryX=0;entryY=0.5;entryDx=0;entryDy=0;" edge="1" parent="1" target="lsN4cA1BIIc9ZXbW3WAg-1">
          <mxGeometry width="50" height="50" relative="1" as="geometry">
            <mxPoint x="170" y="540" as="sourcePoint" />
            <mxPoint x="230" y="540" as="targetPoint" />
          </mxGeometry>
        </mxCell>
        <mxCell id="lsN4cA1BIIc9ZXbW3WAg-12" value="" style="endArrow=classic;html=1;rounded=0;entryX=0;entryY=0.5;entryDx=0;entryDy=0;" edge="1" parent="1">
          <mxGeometry width="50" height="50" relative="1" as="geometry">
            <mxPoint x="170" y="659.5" as="sourcePoint" />
            <mxPoint x="250" y="659.5" as="targetPoint" />
          </mxGeometry>
        </mxCell>
        <mxCell id="lsN4cA1BIIc9ZXbW3WAg-13" value="" style="endArrow=classic;html=1;rounded=0;entryX=0;entryY=0.5;entryDx=0;entryDy=0;" edge="1" parent="1">
          <mxGeometry width="50" height="50" relative="1" as="geometry">
            <mxPoint x="170" y="769.5" as="sourcePoint" />
            <mxPoint x="250" y="769.5" as="targetPoint" />
          </mxGeometry>
        </mxCell>
        <mxCell id="lsN4cA1BIIc9ZXbW3WAg-14" value="" style="endArrow=classic;html=1;rounded=0;entryX=0;entryY=0.5;entryDx=0;entryDy=0;" edge="1" parent="1">
          <mxGeometry width="50" height="50" relative="1" as="geometry">
            <mxPoint x="170" y="879.5" as="sourcePoint" />
            <mxPoint x="250" y="879.5" as="targetPoint" />
          </mxGeometry>
        </mxCell>
        <mxCell id="lsN4cA1BIIc9ZXbW3WAg-15" value="another proces" style="rounded=1;whiteSpace=wrap;html=1;" vertex="1" parent="1">
          <mxGeometry x="450" y="740" width="120" height="60" as="geometry" />
        </mxCell>
        <mxCell id="lsN4cA1BIIc9ZXbW3WAg-16" value="" style="endArrow=classic;html=1;rounded=0;exitX=1;exitY=0.5;exitDx=0;exitDy=0;entryX=0;entryY=0.5;entryDx=0;entryDy=0;" edge="1" parent="1" target="lsN4cA1BIIc9ZXbW3WAg-15" source="lsN4cA1BIIc9ZXbW3WAg-3">
          <mxGeometry width="50" height="50" relative="1" as="geometry">
            <mxPoint x="380" y="770" as="sourcePoint" />
            <mxPoint x="440" y="810" as="targetPoint" />
          </mxGeometry>
        </mxCell>
      </root>
    </mxGraphModel>
  </diagram>
</mxfile>
